<svg width="218" height="22" viewBox="0 0 218 22" fill="none" xmlns="http://www.w3.org/2000/svg">
<path fill-rule="evenodd" clip-rule="evenodd" d="M204.847 10.9995C204.847 10.1223 205.558 9.41089 206.435 9.41089C207.313 9.41089 208.024 10.1223 208.024 10.9995C208.024 11.8766 207.313 12.588 206.435 12.588C205.558 12.588 204.847 11.8766 204.847 10.9995Z" stroke="black" stroke-linecap="round" stroke-linejoin="round"/>
<path fill-rule="evenodd" clip-rule="evenodd" d="M192.138 10.9995C192.138 10.1223 192.85 9.41089 193.727 9.41089C194.604 9.41089 195.315 10.1223 195.315 10.9995C195.315 11.8766 194.604 12.588 193.727 12.588C192.85 12.588 192.138 11.8766 192.138 10.9995Z" stroke="black" stroke-linecap="round" stroke-linejoin="round"/>
<path d="M14.1866 18.6245C15.0949 20.1973 16.773 21.1662 18.5892 21.1662" stroke="black" stroke-linecap="round" stroke-linejoin="round"/>
<path d="M18.5891 21.1663H21.4364" stroke="black" stroke-linecap="round" stroke-linejoin="round"/>
<path d="M21.4363 21.1663C23.0949 21.1663 24.649 20.3572 25.6005 18.9985" stroke="black" stroke-linecap="round" stroke-linejoin="round"/>
<path d="M27.4579 16.3457L28.7737 18.6245" stroke="black" stroke-linecap="round" stroke-linejoin="round"/>
<path d="M28.7736 18.6245C29.6816 20.1973 31.36 21.1662 33.1759 21.1662" stroke="black" stroke-linecap="round" stroke-linejoin="round"/>
<path d="M33.176 21.1663H183.983" stroke="black" stroke-linecap="round" stroke-linejoin="round"/>
<path d="M183.983 21.1662C185.799 21.1662 187.477 20.1973 188.385 18.6245" stroke="black" stroke-linecap="round" stroke-linejoin="round"/>
<path d="M188.385 18.6245L189.701 16.3457" stroke="black" stroke-linecap="round" stroke-linejoin="round"/>
<path d="M191.559 18.9985C192.51 20.3572 194.064 21.1663 195.722 21.1663" stroke="black" stroke-linecap="round" stroke-linejoin="round"/>
<path d="M195.722 21.1663H198.57" stroke="black" stroke-linecap="round" stroke-linejoin="round"/>
<path d="M198.57 21.1662C200.386 21.1662 202.064 20.1973 202.972 18.6245" stroke="black" stroke-linecap="round" stroke-linejoin="round"/>
<path d="M202.972 18.6245L204.288 16.3457" stroke="black" stroke-linecap="round" stroke-linejoin="round"/>
<path d="M206.145 18.9986C207.756 21.2985 210.925 21.8572 213.225 20.2471C214.195 19.5682 214.897 18.5721 215.211 17.4309" stroke="black" stroke-linecap="round" stroke-linejoin="round"/>
<path d="M215.211 17.431L216.238 13.6956" stroke="black" stroke-linecap="round" stroke-linejoin="round"/>
<path d="M216.238 13.6956C217.727 8.28143 214.545 2.68543 209.132 1.19655C208.253 0.955087 207.346 0.83252 206.435 0.83252" stroke="black" stroke-linecap="round" stroke-linejoin="round"/>
<path d="M206.435 0.83252H10.7235" stroke="black" stroke-linecap="round" stroke-linejoin="round"/>
<path d="M10.7235 0.83252C5.10857 0.83252 0.556641 5.38445 0.556641 10.9994C0.556641 11.9104 0.679208 12.8173 0.92067 13.6956" stroke="black" stroke-linecap="round" stroke-linejoin="round"/>
<path d="M0.920715 13.6956L1.94813 17.431" stroke="black" stroke-linecap="round" stroke-linejoin="round"/>
<path d="M1.94806 17.4309C2.6925 20.1378 5.49036 21.7289 8.19757 20.9842C9.3388 20.6705 10.3346 19.9681 11.0135 18.9986" stroke="black" stroke-linecap="round" stroke-linejoin="round"/>
<path d="M12.871 16.3457L14.1867 18.6245" stroke="black" stroke-linecap="round" stroke-linejoin="round"/>
<path fill-rule="evenodd" clip-rule="evenodd" d="M21.8435 10.9995C21.8435 10.1223 22.5549 9.41089 23.4321 9.41089C24.3092 9.41089 25.0206 10.1223 25.0206 10.9995C25.0206 11.8766 24.3092 12.588 23.4321 12.588C22.5549 12.588 21.8435 11.8766 21.8435 10.9995Z" stroke="black" stroke-linecap="round" stroke-linejoin="round"/>
<path fill-rule="evenodd" clip-rule="evenodd" d="M9.13495 10.9995C9.13495 10.1223 9.84635 9.41089 10.7235 9.41089C11.6007 9.41089 12.3121 10.1223 12.3121 10.9995C12.3121 11.8766 11.6007 12.588 10.7235 12.588C9.84635 12.588 9.13495 11.8766 9.13495 10.9995Z" stroke="black" stroke-linecap="round" stroke-linejoin="round"/>
<path d="M204.288 16.3457L206.458 12.5876" stroke="black" stroke-linecap="round" stroke-linejoin="round"/>
<path d="M189.701 16.3456L192.34 11.7742" stroke="black" stroke-linecap="round" stroke-linejoin="round"/>
<path d="M204.288 16.3457L206.145 18.9987" stroke="black" stroke-linecap="round" stroke-linejoin="round"/>
<path d="M11.0135 18.9984L12.8709 16.3455" stroke="black" stroke-linecap="round" stroke-linejoin="round"/>
<path d="M25.6003 18.9984L27.4581 16.3455" stroke="black" stroke-linecap="round" stroke-linejoin="round"/>
<path d="M189.701 16.3457L191.558 18.9987" stroke="black" stroke-linecap="round" stroke-linejoin="round"/>
<path d="M12.871 16.3457L10.7015 12.5876" stroke="black" stroke-linecap="round" stroke-linejoin="round"/>
<path d="M27.4579 16.3456L24.8188 11.7742" stroke="black" stroke-linecap="round" stroke-linejoin="round"/>
</svg>
