<?xml version="1.0" encoding="UTF-8"?>
<svg width="176px" height="187px" viewBox="0 0 176 187" version="1.1" xmlns="http://www.w3.org/2000/svg" xmlns:xlink="http://www.w3.org/1999/xlink">
    <!-- Generator: Sketch 54.1 (76490) - https://sketchapp.com -->
    <title>step 3a</title>
    <desc>Created with Sketch.</desc>
    <g id="Assembly" stroke="none" stroke-width="1" fill="none" fill-rule="evenodd">
        <g id="3" transform="translate(-74.000000, -563.000000)">
            <g id="step-3a" transform="translate(75.742665, 564.033478)">
                <path d="M26.9900728,54.2957362 L24.1759149,59.4026112 C23.421502,60.3311427 22.2600565,60.7955176 20.6915786,60.7957359 C18.3388616,60.7960632 17.1061328,60.516758 16.4991138,59.8476913 C16.0944345,59.4016469 15.4302216,58.5189613 14.506475,57.1996344" id="Path-10" stroke="#000000" stroke-width="1.5" stroke-linecap="round" stroke-linejoin="round" transform="translate(20.748274, 57.545736) scale(-1, 1) rotate(28.000000) translate(-20.748274, -57.545736) "></path>
                <path d="M17.4851799,64.1040492 C15.132463,64.1043759 14.4857912,63.8763859 13.8787723,63.2073193 C13.4740929,62.7612749 12.80988,61.8785892 11.8861335,60.5592623" id="Path-10-Copy-2" stroke="#000000" stroke-width="1.5" stroke-linecap="round" stroke-linejoin="round" transform="translate(14.685657, 62.331656) scale(-1, 1) rotate(28.000000) translate(-14.685657, -62.331656) "></path>
                <path d="M31.2793841,50.5808928 L28.4652262,55.6877678 C27.638235,56.5299001 26.4405004,56.9510754 24.8720224,56.9512936" id="Path-10-Copy" stroke="#000000" stroke-width="1.5" stroke-linecap="round" stroke-linejoin="round" transform="translate(28.075703, 53.766093) scale(-1, 1) rotate(28.000000) translate(-28.075703, -53.766093) "></path>
                <path d="M151.934228,37.5270455 C157.81611,45.8842969 153.844509,56.2556496 140.019424,68.6411035 C129.909152,77.6985752 114.529252,87.833185 93.8797249,99.0449329 C92.2909469,99.9075666 89.837591,101.215864 86.5196571,102.969826 C83.0040056,106.522606 81.8464739,110.620646 83.0470618,115.263945 C84.2476497,119.907244 87.5008019,121.496901 92.8065184,120.032916 C94.2510968,119.117172 95.670519,118.214 97.0647849,117.323399 C98.804059,115.670532 99.673696,113.78346 99.673696,111.662184 M115.56474,107.128707 C139.184838,91.3653865 151.902729,79.2496343 154.529024,73.9777132 C157.891963,67.2270834 157.891963,57.2541201 154.529024,44.0588232" id="Shape" stroke="#D5D5D5" stroke-width="1.5"></path>
                <path d="M114.444377,102.635179 L111.630219,107.742054 C110.803228,108.584186 109.605493,109.005361 108.037016,109.00558" id="Path-10-Copy" stroke="#D5D5D5" stroke-width="1.5" stroke-linecap="round" stroke-linejoin="round" transform="translate(111.240696, 105.820379) scale(-1, 1) rotate(28.000000) translate(-111.240696, -105.820379) "></path>
                <path d="M110.155066,106.350022 L107.340908,111.456897 C106.586495,112.385429 105.42505,112.849804 103.856572,112.850022 C101.503855,112.850349 100.271126,112.571044 99.6641069,111.901977 C99.2594276,111.455933 98.5952147,110.573247 97.6714682,109.25392" id="Path-10" stroke="#D5D5D5" stroke-width="1.5" stroke-linecap="round" stroke-linejoin="round" transform="translate(103.913267, 109.600022) scale(-1, 1) rotate(28.000000) translate(-103.913267, -109.600022) "></path>
                <path d="M10.2379659,55.2854726 C8.16171025,55.3798051 6.77820777,55.6915299 6.0874585,56.2206471 C5.13024475,56.9538773 2.38886063,60.4719644 1.62622171,63.3456629" id="Path-7" stroke="#FF0000" stroke-width="3" opacity="0.5" stroke-linecap="round"></path>
                <path d="M84.8461343,125.608359 C78.8480682,127.839163 72.4778551,130.859001 63.7003766,135.845773 C59.7316897,138.100514 46.5130982,131.234238 24.0446022,115.246946 C15.4542811,86.5362653 10.454291,70.0694215 9.04463166,65.8464143 M10.2379659,45.9881481 L78.7288918,10.7520223 C105.10318,0.213232811 124.294442,-2.57821756 136.302679,2.37767117 C171.98232,17.1029247 155.387979,50.550476 86.5196571,102.720325 C83.0040056,106.273106 81.8464739,110.371146 83.0470618,115.014445 C83.5939956,117.129723 86.073958,131.984885 90.4869491,159.579932 C115.089561,179.290401 130.438963,187.332172 136.535156,183.705244 C147.161045,177.383374 154.968245,171.676688 159.956755,166.585184 C167.898086,158.479895 172.785677,142.309314 172.592357,137.798488 C172.399037,133.287662 154.117538,21.1850447 154.117538,19.9420364" id="Shape" stroke="#000000" stroke-width="1.5"></path>
                <path d="M9.04463166,65.8464143 C7.92576937,62.4945665 7.13505805,60.3183961 6.67249772,59.3179032 C4.47836782,54.5721193 5.66685723,49.6148264 10.2379659,45.9881481" id="Path" stroke="#D5D5D5" stroke-width="1.5"></path>
                <circle id="Oval" stroke="#000000" stroke-width="1.5" cx="95.3077302" cy="108.451963" r="2.00338602"></circle>
                <circle id="Oval" fill="#FF0000" opacity="0.501629" cx="22.1396912" cy="47.5500137" r="2.93899562"></circle>
                <circle id="Oval-Copy-3" stroke="#000000" stroke-width="1.5" cx="12.2413519" cy="56.2206471" r="2.00338602"></circle>
                <circle id="Oval-Copy-2" stroke="#000000" stroke-width="1.5" cx="105.567335" cy="102.720325" r="2.00338602"></circle>
                <circle id="Oval-Copy-4" stroke="#000000" stroke-width="1.5" cx="22.5009564" cy="50.4890093" r="2.00338602"></circle>
                <circle id="Oval" fill="#FF0000" cx="107.570721" cy="102" r="2.93899562"></circle>
                <path d="M105.567335,102.720325 C105.306165,98.5864997 102.926491,97.5847685 98.4283118,99.7151316 C93.4601349,102.068088 96.0703692,105.578264 95.3077302,108.451963" id="Path-7" stroke="#FF0000" stroke-width="3" opacity="0.25" stroke-linecap="round"></path>
                <path d="M95.3077302,108.451963 C91.9663206,117.327488 76.3635412,119.102593 48.499392,113.777278 C6.70316832,105.789306 1.62622171,86.3825912 0.406555428,78.9926885 C-0.406555428,74.0660868 1.77635684e-15,68.8504116 1.62622171,63.3456629" id="Path-8" stroke="#FF0000" stroke-width="3" stroke-linecap="round"></path>
                <path d="M145.525148,46.8221601 C133.54706,38.8278752 114.450843,36.1450347 97.7818504,35.2886967 C81.2823985,34.4410687 59.3497061,41.1066752 31.9837732,55.2855164 M13.2351786,65.1303249 C7.34882247,66.8611114 3.42841934,65.6128198 1.47396922,61.3854502 C-0.720160673,56.6396662 0.468328731,52.4534351 5.03943743,48.8267568 C56.8686241,19.3762498 100.623038,12.0136231 136.302679,26.7388766 C143.855779,29.8560971 149.066295,33.4521534 151.934228,37.5270455" id="Shape" stroke="#000000" stroke-width="1.5"></path>
                <path d="M146.190967,47.2457336 C149.860066,49.2359149 151.694615,51.4009777 151.694615,53.740922" id="Path-6" stroke="#D5D5D5" stroke-width="1.5"></path>
                <path d="M12.4435337,56.2206471 C17.5104971,57.0613206 20.8629713,55.1507746 22.5009564,50.4890093" id="Path-9" stroke="#FF0000" stroke-width="3" stroke-linecap="round"></path>
            </g>
        </g>
    </g>
</svg>