<svg width="200" height="35" viewBox="0 0 200 35" fill="none" xmlns="http://www.w3.org/2000/svg">
<path d="M32.0147 4.07739H4.96048V31.4038H32.0147V4.07739Z" fill="white"/>
<path d="M4.96047 4.07729V4.83938H31.3071V30.6961H5.72256V4.07729H4.96047V4.83938V4.07729H4.25281V32.1658H32.7768V3.36963H4.25281V4.07729H4.96047Z" fill="#231F20"/>
<path d="M43.2284 13.8757H44.7526L48.3997 18.6116V13.8757H50.0328V21.5511H48.6175L44.8614 16.6519V21.5511H43.2284V13.8757Z" fill="#57068C"/>
<path d="M53.0267 13.8757H58.7968V15.3455H54.6598V16.9241H58.3069V18.4483H54.6598V20.0269H58.8513V21.5511H53.0267V13.8757Z" fill="#57068C"/>
<path d="M60.8654 13.8757H62.7161L64.2948 19.0471L66.0367 13.8213H67.452L69.1939 19.0471L70.7726 13.8757H72.5689L69.956 21.6055H68.4318L66.7443 16.543L65.0024 21.6055H63.5327L60.8654 13.8757Z" fill="#57068C"/>
<path d="M81.4963 18.5027L78.5023 13.8757H80.5164L82.3128 16.9241L84.218 13.8757H86.1233L83.1838 18.5027V21.5511H81.4963V18.5027Z" fill="#57068C"/>
<path d="M87.1031 17.7406C87.1031 15.5088 88.845 13.7124 91.1857 13.7124C93.5809 13.7124 95.2684 15.4543 95.2684 17.6862C95.2684 19.8636 93.5264 21.6599 91.1857 21.6599C88.845 21.6599 87.1031 19.918 87.1031 17.7406ZM93.5264 17.7406C93.5264 16.3797 92.5466 15.291 91.1857 15.291C89.8248 15.291 88.8994 16.3797 88.8994 17.6862C88.8994 18.9926 89.8793 20.0813 91.2402 20.0813C92.601 20.1357 93.5264 19.0471 93.5264 17.7406Z" fill="#57068C"/>
<path d="M97.9357 13.8757H101.474C102.454 13.8757 103.216 14.1479 103.706 14.6378C104.141 15.0733 104.359 15.6721 104.359 16.3798C104.359 17.6318 103.706 18.3938 102.726 18.7749L104.577 21.5511H102.617L100.984 19.1015H99.6776V21.5511H97.9901V13.8757H97.9357ZM101.311 17.5773C102.127 17.5773 102.617 17.1418 102.617 16.4886C102.617 15.781 102.127 15.3999 101.311 15.3999H99.6232V17.6318H101.311V17.5773Z" fill="#57068C"/>
<path d="M106.972 13.8757H108.659V17.1963L111.762 13.8757H113.831L110.674 17.1418L113.994 21.5511H111.926L109.53 18.285L108.659 19.2104V21.5511H106.972V13.8757Z" fill="#57068C"/>
<path d="M120.363 18.2305V13.8757H122.05V18.2305C122.05 19.4826 122.704 20.1358 123.684 20.1358C124.718 20.1358 125.371 19.4826 125.371 18.285V13.8757H127.059V18.2305C127.059 20.5713 125.752 21.7144 123.684 21.7144C121.615 21.66 120.363 20.5168 120.363 18.2305Z" fill="#57068C"/>
<path d="M129.889 13.8757H131.468L135.06 18.6116V13.8757H136.748V21.5511H135.333L131.577 16.6519V21.5511H129.889V13.8757Z" fill="#57068C"/>
<path d="M141.484 13.8757H139.796V21.5511H141.484V13.8757Z" fill="#57068C"/>
<path d="M143.825 13.8757H145.73L147.744 19.2648L149.758 13.8757H151.554L148.452 21.6055H146.927L143.825 13.8757Z" fill="#57068C"/>
<path d="M153.841 13.8757H159.665V15.3455H155.528V16.9241H159.175V18.4483H155.528V20.0269H159.72V21.5511H153.841V13.8757Z" fill="#57068C"/>
<path d="M162.332 13.8757H165.871C166.851 13.8757 167.613 14.1479 168.103 14.6378C168.538 15.0733 168.756 15.6721 168.756 16.3798C168.756 17.6318 168.103 18.3938 167.123 18.7749L168.974 21.5511H167.014L165.381 19.1015H164.02V21.5511H162.332V13.8757ZM165.707 17.5773C166.524 17.5773 167.014 17.1418 167.014 16.4886C167.014 15.781 166.524 15.3999 165.707 15.3999H164.02V17.6318H165.707V17.5773Z" fill="#57068C"/>
<path d="M170.824 20.4079L171.804 19.2104C172.512 19.8091 173.219 20.1358 174.09 20.1358C174.798 20.1358 175.179 19.8636 175.179 19.4281C175.179 18.9926 174.907 18.7749 173.601 18.4483C172.022 18.0672 171.042 17.6317 171.042 16.1076C171.042 14.6922 172.185 13.7668 173.764 13.7668C174.907 13.7668 175.832 14.0935 176.594 14.7467L175.724 15.9987C175.016 15.5088 174.363 15.2366 173.709 15.2366C173.056 15.2366 172.73 15.5088 172.73 15.8898C172.73 16.3797 173.056 16.543 174.417 16.9241C175.996 17.3051 176.867 17.9039 176.867 19.2104C176.867 20.7345 175.724 21.6055 174.036 21.6055C172.947 21.6599 171.75 21.2789 170.824 20.4079Z" fill="#57068C"/>
<path d="M181.276 13.8757H179.588V21.5511H181.276V13.8757Z" fill="#57068C"/>
<path d="M186.121 15.3999H183.725V13.8757H190.149V15.3999H187.808V21.5511H186.121V15.3999Z" fill="#57068C"/>
<path d="M194.721 18.5027L191.727 13.8757H193.742L195.538 16.9241L197.443 13.8757H199.348L196.409 18.5027V21.5511H194.721V18.5027Z" fill="#57068C"/>
<path d="M34.5732 34.6699H0.660095V0.756836H34.5732V34.6699ZM12.3092 11.6439C10.9483 13.1136 10.2951 18.3938 16.1741 18.3938H16.3374C12.6903 16.3797 13.1257 13.3858 14.5955 11.2628C14.7588 10.9906 13.7245 8.54107 13.6701 8.86768C13.5068 9.95638 12.527 11.2628 12.3092 11.6439ZM17.2628 18.285C14.8677 13.8213 19.8757 10.7729 19.8757 10.2286C19.8757 8.64994 18.8414 5.76487 18.7326 6.14592C18.4059 7.5068 16.4463 9.5209 16.0652 9.95638C12.7447 13.7124 13.5612 16.7063 17.2628 18.285ZM17.7527 18.3394C18.0793 13.7668 22.4886 13.2769 22.8152 12.3515C23.414 10.8273 22.162 7.99672 22.0531 8.21446C21.6176 9.35759 20.7467 10.3374 20.7467 10.3374C17.0995 13.1136 16.3919 15.3455 17.6983 18.2305L17.7527 18.3394ZM18.2426 18.3938C25.3192 18.9926 24.9382 10.8273 24.9382 10.8273C24.5027 11.8616 23.6317 12.406 23.5229 12.5148C22.6519 13.7124 19.0592 13.8213 18.2426 18.285V18.3938ZM14.9765 20.4624H19.8213V19.047H14.9765V20.4624ZM16.9906 30.2607C17.0451 30.4784 17.535 30.5873 17.6439 30.2607L18.787 20.9523H15.9564L16.9906 30.2607Z" fill="#57068C"/>
</svg>
