<svg width="35" height="35" viewBox="0 0 35 35" fill="none" xmlns="http://www.w3.org/2000/svg">
<path d="M34.1268 34.9055H0.213745V0.992432H34.1268V34.9055ZM11.8629 11.8795C10.502 13.3492 9.84876 18.6294 15.7278 18.6294H15.8911C12.2439 16.6153 12.6794 13.6214 14.1491 11.4984C14.3124 11.2262 13.2782 8.77666 13.2237 9.10327C13.0604 10.192 12.0806 11.4984 11.8629 11.8795ZM16.8165 18.5206C14.4213 14.0569 19.4294 11.0085 19.4294 10.4642C19.4294 8.88553 18.3951 6.00047 18.2862 6.38152C17.9596 7.74239 15.9999 9.75649 15.6189 10.192C12.2983 13.948 13.1149 16.9419 16.8165 18.5206ZM17.3064 18.575C17.633 14.0024 22.0422 13.5125 22.3688 12.5871C22.9676 11.0629 21.7156 8.23231 21.6068 8.45005C21.1713 9.59319 20.3003 10.573 20.3003 10.573C16.6532 13.3492 15.9455 15.5811 17.2519 18.4661L17.3064 18.575ZM17.7963 18.6294C24.8729 19.2282 24.4918 11.0629 24.4918 11.0629C24.0563 12.0972 23.1854 12.6416 23.0765 12.7504C22.2055 13.948 18.6128 14.0569 17.7963 18.5206V18.6294ZM14.5302 20.698H19.3749V19.2826H14.5302V20.698ZM16.5443 30.4963C16.5987 30.714 17.0886 30.8229 17.1975 30.4963L18.3406 21.1879H15.51L16.5443 30.4963Z" fill="#57068C"/>
</svg>
