<svg width="257" height="212" viewBox="0 0 257 212" fill="none" xmlns="http://www.w3.org/2000/svg">
<path fill-rule="evenodd" clip-rule="evenodd" d="M232.85 41.4685C232.85 40.5873 233.562 39.8765 234.444 39.8765C235.327 39.8765 236.038 40.5873 236.038 41.4685C236.038 42.3498 235.327 43.0605 234.444 43.0605C233.562 43.0605 232.85 42.3498 232.85 41.4685Z" stroke="black" stroke-linecap="round" stroke-linejoin="round"/>
<path fill-rule="evenodd" clip-rule="evenodd" d="M245.66 42.1508C245.66 41.2695 246.372 40.5588 247.254 40.5588C248.136 40.5588 248.848 41.2695 248.848 42.1508C248.848 43.0321 248.136 43.7428 247.254 43.7428C246.372 43.7428 245.66 43.0321 245.66 42.1508Z" stroke="black" stroke-linecap="round" stroke-linejoin="round"/>
<path d="M255.424 43.3163C255.965 39.1657 253.602 35.1857 249.702 33.7075" stroke="black" stroke-linecap="round" stroke-linejoin="round"/>
<path d="M249.702 33.7075L168.573 2.55005" stroke="black" stroke-linecap="round" stroke-linejoin="round"/>
<path d="M168.573 2.55011C166.239 1.6404 163.734 1.18555 161.229 1.18555" stroke="black" stroke-linecap="round" stroke-linejoin="round"/>
<path d="M161.229 1.21387H128.123" stroke="black" stroke-linecap="round" stroke-linejoin="round"/>
<path d="M128.123 211.015H143.495" stroke="black" stroke-linecap="round" stroke-linejoin="round"/>
<path d="M143.495 211.015C194.933 211.015 238.401 172.921 245.09 121.977" stroke="black" stroke-linecap="round" stroke-linejoin="round"/>
<path d="M245.09 121.977L255.424 43.3164" stroke="black" stroke-linecap="round" stroke-linejoin="round"/>
<path fill-rule="evenodd" clip-rule="evenodd" d="M20.1797 41.4685C20.1797 40.5873 20.8913 39.8765 21.7738 39.8765C22.6562 39.8765 23.3679 40.5873 23.3679 41.4685C23.3679 42.3498 22.6562 43.0605 21.7738 43.0605C20.8913 43.0605 20.1797 42.3498 20.1797 41.4685Z" stroke="black" stroke-linecap="round" stroke-linejoin="round"/>
<path fill-rule="evenodd" clip-rule="evenodd" d="M7.39838 42.1508C7.39838 41.2695 8.11004 40.5588 8.99249 40.5588C9.87494 40.5588 10.5866 41.2695 10.5866 42.1508C10.5866 43.0321 9.87494 43.7428 8.99249 43.7428C8.11004 43.7428 7.39838 43.0321 7.39838 42.1508Z" stroke="black" stroke-linecap="round" stroke-linejoin="round"/>
<path d="M6.54437 33.7075C2.64451 35.2142 0.281817 39.1941 0.822674 43.3163" stroke="black" stroke-linecap="round" stroke-linejoin="round"/>
<path d="M0.79425 43.3164L11.1274 121.977" stroke="black" stroke-linecap="round" stroke-linejoin="round"/>
<path d="M11.1274 121.977C17.817 172.921 61.2848 211.015 112.723 211.015" stroke="black" stroke-linecap="round" stroke-linejoin="round"/>
<path d="M112.751 211.015H128.123" stroke="black" stroke-linecap="round" stroke-linejoin="round"/>
<path d="M128.123 1.21387H95.0173" stroke="black" stroke-linecap="round" stroke-linejoin="round"/>
<path d="M95.0173 1.21387C92.5122 1.21387 90.0072 1.66872 87.673 2.57843" stroke="black" stroke-linecap="round" stroke-linejoin="round"/>
<path d="M87.673 2.55005L6.54437 33.7075" stroke="black" stroke-linecap="round" stroke-linejoin="round"/>
</svg>
